<svg width="20" height="15" viewBox="0 0 20 15" fill="none" xmlns="http://www.w3.org/2000/svg">
<path d="M1 6.5C0.447715 6.5 -4.82823e-08 6.94772 0 7.5C4.82823e-08 8.05228 0.447715 8.5 1 8.5L1 6.5ZM19.7071 8.20711C20.0976 7.81658 20.0976 7.18342 19.7071 6.79289L13.3431 0.428931C12.9526 0.0384068 12.3195 0.0384068 11.9289 0.428931C11.5384 0.819456 11.5384 1.45262 11.9289 1.84314L17.5858 7.5L11.9289 13.1569C11.5384 13.5474 11.5384 14.1805 11.9289 14.5711C12.3195 14.9616 12.9526 14.9616 13.3431 14.5711L19.7071 8.20711ZM1 8.5L19 8.5L19 6.5L1 6.5L1 8.5Z" fill="url(#paint0_linear_85_1974)"/>
<defs>
<linearGradient id="paint0_linear_85_1974" x1="3.88947" y1="7.87" x2="16.6173" y2="10.6592" gradientUnits="userSpaceOnUse">
<stop stop-color="#0B6EF3"/>
<stop offset="1" stop-color="#2884FF"/>
</linearGradient>
</defs>
</svg>
