<svg width="32" height="23" viewBox="0 0 32 23" fill="none" xmlns="http://www.w3.org/2000/svg">
<path d="M0 1.91667C0 0.858121 0.858121 0 1.91667 0H30.0833C31.1419 0 32 0.858121 32 1.91667C32 2.97521 31.1419 3.83333 30.0833 3.83333H1.91667C0.858122 3.83333 0 2.97521 0 1.91667ZM0 11.5C0 10.4415 0.858121 9.58333 1.91667 9.58333H30.0833C31.1419 9.58333 32 10.4415 32 11.5C32 12.5585 31.1419 13.4167 30.0833 13.4167H1.91667C0.858122 13.4167 0 12.5585 0 11.5ZM0 21.0833C0 20.0248 0.858121 19.1667 1.91667 19.1667H30.0833C31.1419 19.1667 32 20.0248 32 21.0833C32 22.1419 31.1419 23 30.0833 23H1.91667C0.858122 23 0 22.1419 0 21.0833Z" fill="black"/>
</svg>
