<svg width="216" height="38" viewBox="0 0 216 38" fill="none" xmlns="http://www.w3.org/2000/svg">
<path d="M18.0489 2.92705C18.3483 2.00574 19.6517 2.00574 19.9511 2.92705L23.0413 12.4377C23.1751 12.8497 23.5591 13.1287 23.9923 13.1287H33.9924C34.9611 13.1287 35.3639 14.3683 34.5802 14.9377L26.4899 20.8156C26.1395 21.0702 25.9928 21.5216 26.1267 21.9336L29.2169 31.4443C29.5162 32.3656 28.4617 33.1317 27.678 32.5623L19.5878 26.6844C19.2373 26.4298 18.7627 26.4298 18.4122 26.6844L10.322 32.5623C9.53826 33.1317 8.48378 32.3656 8.78314 31.4443L11.8733 21.9336C12.0072 21.5216 11.8605 21.0702 11.5101 20.8156L3.41982 14.9377C2.63611 14.3683 3.03889 13.1287 4.00761 13.1287H14.0077C14.4409 13.1287 14.8249 12.8497 14.9587 12.4377L18.0489 2.92705Z" fill="#0B6EF3"/>
<path d="M62.5466 3.01365C62.8412 2.08249 64.1588 2.08249 64.4534 3.01364L67.4326 12.4303C67.5641 12.8461 67.9499 13.1287 68.386 13.1287H78.0822C79.0445 13.1287 79.4515 14.3547 78.6803 14.9301L70.7904 20.8174C70.4492 21.072 70.3066 21.5147 70.435 21.9205L73.4378 31.4119C73.7307 32.338 72.6647 33.0959 71.8863 32.515L64.098 26.7036C63.7433 26.4389 63.2567 26.4389 62.902 26.7036L55.1137 32.515C54.3353 33.0959 53.2693 32.338 53.5622 31.4119L56.565 21.9205C56.6934 21.5147 56.5508 21.072 56.2096 20.8174L48.3197 14.9301C47.5485 14.3547 47.9555 13.1287 48.9178 13.1287H58.614C59.0501 13.1287 59.4359 12.8461 59.5674 12.4303L62.5466 3.01365Z" fill="#0B6EF3"/>
<path d="M107.049 2.92705C107.348 2.00574 108.652 2.00574 108.951 2.92705L112.041 12.4377C112.175 12.8497 112.559 13.1287 112.992 13.1287H122.992C123.961 13.1287 124.364 14.3683 123.58 14.9377L115.49 20.8156C115.139 21.0702 114.993 21.5216 115.127 21.9336L118.217 31.4443C118.516 32.3656 117.462 33.1317 116.678 32.5623L108.588 26.6844C108.237 26.4298 107.763 26.4298 107.412 26.6844L99.322 32.5623C98.5383 33.1317 97.4838 32.3656 97.7831 31.4443L100.873 21.9336C101.007 21.5216 100.861 21.0702 100.51 20.8156L92.4198 14.9377C91.6361 14.3683 92.0389 13.1287 93.0076 13.1287H103.008C103.441 13.1287 103.825 12.8497 103.959 12.4377L107.049 2.92705Z" fill="#0B6EF3"/>
<path d="M151.547 3.01365C151.841 2.08249 153.159 2.08249 153.453 3.01364L156.433 12.4303C156.564 12.8461 156.95 13.1287 157.386 13.1287H167.082C168.045 13.1287 168.451 14.3547 167.68 14.9301L159.79 20.8174C159.449 21.072 159.307 21.5147 159.435 21.9205L162.438 31.4119C162.731 32.338 161.665 33.0959 160.886 32.515L153.098 26.7036C152.743 26.4389 152.257 26.4389 151.902 26.7036L144.114 32.515C143.335 33.0959 142.269 32.338 142.562 31.4119L145.565 21.9205C145.693 21.5147 145.551 21.072 145.21 20.8174L137.32 14.9301C136.548 14.3547 136.955 13.1287 137.918 13.1287H147.614C148.05 13.1287 148.436 12.8461 148.567 12.4303L151.547 3.01365Z" fill="#0B6EF3"/>
<path d="M196.049 2.92705C196.348 2.00574 197.652 2.00574 197.951 2.92705L201.041 12.4377C201.175 12.8497 201.559 13.1287 201.992 13.1287H211.992C212.961 13.1287 213.364 14.3683 212.58 14.9377L204.49 20.8156C204.139 21.0702 203.993 21.5216 204.127 21.9336L207.217 31.4443C207.516 32.3656 206.462 33.1317 205.678 32.5623L197.588 26.6844C197.237 26.4298 196.763 26.4298 196.412 26.6844L188.322 32.5623C187.538 33.1317 186.484 32.3656 186.783 31.4443L189.873 21.9336C190.007 21.5216 189.861 21.0702 189.51 20.8156L181.42 14.9377C180.636 14.3683 181.039 13.1287 182.008 13.1287H192.008C192.441 13.1287 192.825 12.8497 192.959 12.4377L196.049 2.92705Z" fill="#0B6EF3"/>
</svg>
