<svg width="34" height="34" viewBox="0 0 34 34" fill="none" xmlns="http://www.w3.org/2000/svg">
<path d="M15.5833 19.8334V17H18.4167V19.8334H15.5833ZM9.91667 19.8334V17H12.75V19.8334H9.91667ZM21.25 19.8334V17H24.0833V19.8334H21.25ZM15.5833 25.5V22.6667H18.4167V25.5H15.5833ZM9.91667 25.5V22.6667H12.75V25.5H9.91667ZM21.25 25.5V22.6667H24.0833V25.5H21.25ZM4.25 31.1667V4.95837H8.67708V2.83337H10.9792V4.95837H23.0208V2.83337H25.3229V4.95837H29.75V31.1667H4.25ZM6.375 29.0417H27.625V13.8125H6.375V29.0417ZM6.375 11.6875H27.625V7.08337H6.375V11.6875Z" fill="white"/>
</svg>
