<svg width="26" height="30" viewBox="0 0 26 30" fill="none" xmlns="http://www.w3.org/2000/svg">
<path d="M11.5833 17.8334V15H14.4167V17.8334H11.5833ZM5.91667 17.8334V15H8.75V17.8334H5.91667ZM17.25 17.8334V15H20.0833V17.8334H17.25ZM11.5833 23.5V20.6667H14.4167V23.5H11.5833ZM5.91667 23.5V20.6667H8.75V23.5H5.91667ZM17.25 23.5V20.6667H20.0833V23.5H17.25ZM0.25 29.1667V2.95837H4.67708V0.833374H6.97917V2.95837H19.0208V0.833374H21.3229V2.95837H25.75V29.1667H0.25ZM2.375 27.0417H23.625V11.8125H2.375V27.0417ZM2.375 9.68754H23.625V5.08337H2.375V9.68754Z" fill="white"/>
</svg>
