<svg width="153" height="140" viewBox="0 0 153 140" fill="none" xmlns="http://www.w3.org/2000/svg">
<g clip-path="url(#clip0_85_3169)">
<path d="M8.5231 91.9465C11.0177 96.315 15.591 99.0193 20.788 99.0193H87.3098C92.7147 99.0193 96.4565 98.1872 98.9511 96.731C101.238 95.2749 102.485 92.5706 102.485 88.6181C102.485 84.6657 101.446 81.7533 99.3668 80.2972C97.288 78.633 93.7541 78.0089 88.7649 78.0089H65.4823C54.8804 78.0089 47.1889 75.9287 42.1997 71.7682C37.2106 67.6077 34.716 60.7429 34.716 51.5899C34.716 46.5973 35.3397 42.2288 36.587 38.6924C37.8342 35.156 39.913 32.2437 42.6155 29.7474C45.3179 27.4591 48.644 25.7949 52.5937 24.5468C54.4647 24.1308 56.7514 23.7147 59.2459 23.2987C61.9484 22.8826 64.4429 22.8826 67.3533 22.8826H92.7147C96.8723 22.8826 99.3668 18.3061 97.288 14.7697L96.6644 13.7296C91.8831 5.20059 82.7364 0 72.966 0H51.9701C42.1997 0 33.053 5.20059 28.2717 13.7296L3.74185 56.1664C-1.24728 64.6954 -1.24728 75.0966 3.74185 83.6256L8.5231 91.9465Z" fill="url(#paint0_linear_85_3169)"/>
<path d="M139.488 39.3165H70.0561C64.8591 39.3165 61.1173 40.3566 58.6227 42.2289C56.1281 44.1011 54.8809 47.2214 54.8809 51.3819C54.8809 58.0387 59.0385 61.5751 67.1458 61.5751H92.923C99.9909 61.5751 105.604 62.4072 109.969 64.0714C114.335 65.7355 117.453 68.4399 119.532 72.3923C121.61 76.3448 122.65 81.3373 122.65 87.7861C122.65 94.2348 121.403 99.4354 119.116 103.596C116.829 107.756 113.295 110.669 108.306 112.749C103.525 114.621 97.4963 115.661 90.2205 115.661H61.1173C56.5439 115.661 53.8415 120.446 56.1281 124.398L57.1675 126.27C62.1567 134.799 71.0955 140 80.8659 140H100.822C110.593 140 119.74 134.799 124.521 126.27L149.051 83.6256C154.04 75.0966 154.04 64.6954 149.051 56.1665L139.488 39.3165Z" fill="url(#paint1_linear_85_3169)"/>
</g>
<defs>
<linearGradient id="paint0_linear_85_3169" x1="16.4515" y1="36.6371" x2="92.3867" y2="37.594" gradientUnits="userSpaceOnUse">
<stop stop-color="#0B6EF3"/>
<stop offset="1" stop-color="#2884FF"/>
</linearGradient>
<linearGradient id="paint1_linear_85_3169" x1="70.5983" y1="76.5694" x2="143.146" y2="77.4283" gradientUnits="userSpaceOnUse">
<stop stop-color="#0B6EF3"/>
<stop offset="1" stop-color="#2884FF"/>
</linearGradient>
<clipPath id="clip0_85_3169">
<rect width="153" height="140" fill="white"/>
</clipPath>
</defs>
</svg>
