<svg width="25" height="26" viewBox="0 0 25 26" fill="none" xmlns="http://www.w3.org/2000/svg">
<path d="M22.2222 0C22.9589 0 23.6655 0.304364 24.1864 0.846136C24.7073 1.38791 25 2.12271 25 2.88889V23.1111C25 23.8773 24.7073 24.6121 24.1864 25.1539C23.6655 25.6956 22.9589 26 22.2222 26H2.77778C2.04107 26 1.33453 25.6956 0.813592 25.1539C0.292658 24.6121 0 23.8773 0 23.1111V2.88889C0 2.12271 0.292658 1.38791 0.813592 0.846136C1.33453 0.304364 2.04107 0 2.77778 0H22.2222ZM21.5278 22.3889V14.7333C21.5278 13.4845 21.0507 12.2867 20.2016 11.4036C19.3525 10.5206 18.2008 10.0244 17 10.0244C15.8194 10.0244 14.4444 10.7756 13.7778 11.9022V10.2989H9.90278V22.3889H13.7778V15.2678C13.7778 14.1556 14.6389 13.2456 15.7083 13.2456C16.224 13.2456 16.7186 13.4586 17.0833 13.8379C17.4479 14.2171 17.6528 14.7315 17.6528 15.2678V22.3889H21.5278ZM5.38889 8.03111C6.00773 8.03111 6.60122 7.77545 7.03881 7.32036C7.47639 6.86527 7.72222 6.24804 7.72222 5.60444C7.72222 4.26111 6.68056 3.16333 5.38889 3.16333C4.76637 3.16333 4.16934 3.42052 3.72915 3.87832C3.28896 4.33612 3.04167 4.95702 3.04167 5.60444C3.04167 6.94778 4.09722 8.03111 5.38889 8.03111ZM7.31944 22.3889V10.2989H3.47222V22.3889H7.31944Z" fill="#D5E0E9"/>
</svg>
