<svg width="19" height="19" viewBox="0 0 19 19" fill="none" xmlns="http://www.w3.org/2000/svg">
<path d="M12.7156 13.7219L13.7 12.7375L10.2219 9.2375V4.84062H8.90938V9.7625L12.7156 13.7219ZM9.5 18.25C8.30417 18.25 7.17396 18.0203 6.10938 17.5609C5.04479 17.1016 4.1151 16.4745 3.32031 15.6797C2.52552 14.8849 1.89844 13.9552 1.43906 12.8906C0.979687 11.826 0.75 10.6958 0.75 9.5C0.75 8.30417 0.979687 7.17396 1.43906 6.10938C1.89844 5.04479 2.52552 4.1151 3.32031 3.32031C4.1151 2.52552 5.04479 1.89844 6.10938 1.43906C7.17396 0.979687 8.30417 0.75 9.5 0.75C10.6958 0.75 11.826 0.979687 12.8906 1.43906C13.9552 1.89844 14.8849 2.52552 15.6797 3.32031C16.4745 4.1151 17.1016 5.04479 17.5609 6.10938C18.0203 7.17396 18.25 8.30417 18.25 9.5C18.25 10.6958 18.0203 11.826 17.5609 12.8906C17.1016 13.9552 16.4745 14.8849 15.6797 15.6797C14.8849 16.4745 13.9552 17.1016 12.8906 17.5609C11.826 18.0203 10.6958 18.25 9.5 18.25ZM9.5 16.9375C11.5417 16.9375 13.2917 16.2083 14.75 14.75C16.2083 13.2917 16.9375 11.5417 16.9375 9.5C16.9375 7.45833 16.2083 5.70833 14.75 4.25C13.2917 2.79167 11.5417 2.0625 9.5 2.0625C7.45833 2.0625 5.70833 2.79167 4.25 4.25C2.79167 5.70833 2.0625 7.45833 2.0625 9.5C2.0625 11.5417 2.79167 13.2917 4.25 14.75C5.70833 16.2083 7.45833 16.9375 9.5 16.9375Z" fill="#3E3E3E"/>
</svg>
